<?xml version="1.0" standalone="no"?>
<!DOCTYPE svg PUBLIC "-//W3C//DTD SVG 20010904//EN"
 "http://www.w3.org/TR/2001/REC-SVG-20010904/DTD/svg10.dtd">
<svg version="1.0" xmlns="http://www.w3.org/2000/svg"
 width="1612.000000pt" height="1590.000000pt" viewBox="0 0 1612.000000 1590.000000"
 preserveAspectRatio="xMidYMid meet">

<g transform="translate(0.000000,1590.000000) scale(0.100000,-0.100000)"
fill="#000000" stroke="none">
<path d="M7875 15091 c-96 -29 -157 -64 -253 -146 -37 -31 -110 -133 -137
-189 -52 -111 -81 -297 -71 -459 l6 -97 -24 6 c-61 15 -103 -37 -91 -112 5
-39 64 -217 81 -247 22 -38 50 -57 85 -57 40 0 42 -3 54 -90 18 -143 24 -284
15 -395 l-10 -120 -43 -39 c-150 -137 -436 -271 -697 -325 -216 -45 -359 -122
-509 -272 -132 -132 -206 -282 -243 -489 -17 -98 -15 -350 5 -466 13 -79 13
-100 0 -170 -37 -207 -81 -524 -102 -732 -8 -74 -20 -125 -42 -180 -17 -42
-61 -158 -99 -257 -137 -362 -135 -353 -150 -800 -10 -297 -9 -289 -79 -700
-36 -211 -43 -235 -65 -251 -12 -9 -59 -40 -106 -71 -88 -57 -144 -105 -162
-137 -23 -43 -70 -186 -79 -246 -22 -129 -22 -150 -4 -171 59 -65 174 46 176
170 1 52 1 54 11 26 8 -21 8 -61 -1 -145 -12 -118 -22 -163 -71 -311 -16 -48
-36 -115 -45 -150 -9 -35 -28 -91 -42 -124 -20 -46 -24 -71 -21 -113 3 -31 11
-58 19 -63 23 -14 65 -10 87 9 12 9 52 96 90 192 96 240 149 353 164 347 15
-5 17 11 -20 -252 -35 -246 -46 -393 -33 -428 14 -36 43 -50 75 -36 40 19 57
54 66 142 10 99 24 182 56 347 28 142 42 190 54 190 19 0 22 -54 19 -325 -4
-312 -4 -315 57 -315 38 0 60 18 68 57 7 30 33 330 43 481 6 92 20 131 41 118
7 -4 12 -17 12 -30 0 -25 62 -274 79 -319 6 -15 18 -30 26 -33 21 -8 62 3 68
19 2 7 -2 62 -10 122 -12 85 -13 148 -7 280 12 240 9 416 -9 517 l-16 88 35
122 c67 234 157 480 260 704 152 332 219 580 239 884 5 81 27 205 65 365 25
103 50 216 61 273 7 34 16 62 21 62 4 0 10 -17 13 -37 19 -122 50 -247 92
-369 l47 -139 1 -210 c0 -159 -3 -219 -14 -245 -11 -26 -15 -93 -17 -252 -1
-120 -5 -222 -8 -227 -12 -19 -44 -217 -50 -311 -16 -220 -28 -342 -47 -450
-48 -273 -58 -340 -88 -610 -35 -304 -41 -399 -41 -625 0 -340 27 -610 96
-955 40 -198 59 -275 120 -475 68 -225 97 -478 98 -860 0 -265 -1 -280 -50
-540 -21 -117 -29 -421 -15 -568 17 -166 46 -346 82 -497 235 -1001 233 -988
233 -1440 1 -327 0 -351 -22 -450 -35 -153 -62 -212 -189 -408 -76 -117 -105
-221 -83 -300 14 -53 41 -82 78 -82 15 0 33 -5 40 -12 7 -7 63 -12 156 -14
113 -2 150 -6 168 -18 30 -21 101 -20 146 1 99 46 215 226 232 358 5 39 9 94
10 123 0 69 8 83 95 167 110 107 117 152 48 320 -34 83 -37 100 -43 225 -5 99
-14 159 -33 225 -41 145 -51 246 -38 398 6 73 14 166 17 207 14 190 45 407 89
625 14 66 29 158 35 205 15 123 12 444 -5 598 -16 140 -52 359 -62 375 -3 5
-5 57 -4 114 1 77 7 120 22 162 107 297 124 428 121 946 -2 274 -7 430 -16
495 -10 69 -12 121 -5 190 28 311 31 392 27 859 l-3 493 60 0 60 0 -3 -498
c-3 -308 0 -547 7 -624 6 -69 15 -171 20 -227 7 -75 6 -125 -5 -193 -9 -64
-14 -216 -15 -499 -2 -370 -1 -418 19 -546 20 -135 57 -277 101 -396 15 -43
21 -83 22 -162 1 -57 -1 -109 -4 -114 -3 -5 -15 -61 -26 -124 -69 -390 -69
-750 -2 -1079 46 -225 68 -393 102 -802 13 -157 4 -254 -38 -403 -18 -64 -27
-129 -32 -225 -7 -125 -10 -142 -45 -225 -20 -49 -40 -111 -43 -136 -8 -64 25
-126 100 -191 32 -28 64 -63 71 -77 7 -14 16 -73 19 -131 4 -58 14 -127 23
-155 38 -111 140 -242 217 -278 44 -21 116 -22 145 -1 18 12 55 16 168 18 93
2 149 7 156 14 7 7 25 12 40 12 37 0 64 29 78 82 22 79 -7 183 -83 300 -69
107 -138 227 -151 266 -8 23 -25 87 -38 144 -22 97 -23 122 -22 448 0 301 3
362 22 482 21 134 97 480 222 1003 27 114 57 309 71 459 14 156 6 445 -16 566
-57 305 -66 513 -40 844 21 268 42 396 88 546 63 208 119 444 151 640 82 503
87 892 22 1460 -30 258 -33 276 -92 605 -7 44 -21 174 -29 290 -15 201 -35
353 -57 423 -5 18 -11 128 -12 245 -2 155 -6 221 -17 247 -11 27 -14 86 -13
245 l0 210 48 139 c41 122 72 248 91 369 3 20 9 37 13 37 4 0 18 -46 30 -102
12 -57 41 -191 65 -298 26 -114 47 -236 51 -295 20 -296 93 -571 231 -869 105
-228 210 -509 275 -742 l29 -104 -16 -87 c-18 -102 -21 -276 -9 -518 6 -135 5
-192 -7 -278 -9 -60 -13 -115 -10 -123 7 -19 52 -29 72 -17 18 11 63 154 90
288 12 61 23 90 32 90 21 0 27 -34 44 -265 28 -370 33 -390 100 -390 59 0 60
3 56 319 -1 157 1 294 4 304 18 46 33 10 69 -173 32 -165 46 -248 56 -347 5
-45 16 -92 24 -106 34 -52 97 -52 116 -1 16 42 -9 312 -54 584 -13 82 -9 117
13 94 14 -13 104 -218 167 -379 57 -145 78 -175 123 -175 42 0 54 14 59 72 3
42 -2 68 -26 128 -16 41 -33 91 -37 110 -4 19 -22 80 -40 135 -54 166 -64 206
-76 325 -9 84 -9 124 -1 145 10 28 10 26 11 -26 1 -68 33 -134 81 -166 68 -47
117 -17 106 64 -17 135 -52 267 -91 343 -21 39 -71 82 -186 158 l-107 71 -16
88 c-93 518 -96 538 -106 848 -15 447 -13 438 -150 800 -38 99 -82 215 -99
257 -22 55 -34 106 -42 180 -21 208 -65 525 -102 732 -13 70 -13 91 0 170 9
50 16 158 17 241 1 215 -25 347 -96 490 -84 169 -216 303 -401 405 -77 42
-149 67 -261 90 -226 46 -431 131 -606 251 -138 94 -138 94 -150 234 -11 134
0 327 26 458 5 24 10 27 43 27 59 0 77 25 131 180 43 121 46 193 10 222 -17
14 -34 18 -55 15 l-30 -5 -1 157 c0 219 -31 353 -106 463 -97 142 -210 227
-358 269 -88 26 -289 25 -375 0z"/>
</g>
</svg>
